<svg xmlns="http://www.w3.org/2000/svg" xmlns:svg="http://www.w3.org/2000/svg" id="svg2" width="256" height="256" version="1.1"><metadata id="metadata7"/><g id="layer1" transform="translate(0,-796.36218)"><g id="g3800" transform="matrix(2,0,0,2,-352,-1148.3622)"><path id="path3769" d="m 240,230 c -5.52285,0 -10,4.47715 -10,10 0,5.52285 4.47715,10 10,10 5.52285,0 10,-4.47715 10,-10 0,-5.52285 -4.47715,-10 -10,-10 z m -3.5,5 3.5,3.5 3.5,-3.5 1.5,1.5 -3.5,3.5 3.5,3.5 -1.5,1.5 -3.5,-3.5 -3.5,3.5 -1.5,-1.5 3.5,-3.5 -3.5,-3.5 1.5,-1.5 z" transform="translate(0,796.36218)" style="color:#000;fill:#000;fill-opacity:.1254902;fill-rule:nonzero;stroke:none;stroke-width:1;marker:none;visibility:visible;display:inline;overflow:visible;enable-background:accumulate"/><g style="fill:#fff;fill-opacity:.1254902" id="g3765" transform="translate(0,4)"><path style="color:#000;fill:#fff;fill-opacity:.1254902;fill-rule:nonzero;stroke:none;stroke-width:1;marker:none;visibility:visible;display:inline;overflow:visible;enable-background:accumulate" id="path2987" d="m 235,1028.8622 1.5,-1.5 8.5,8.5 -1.5,1.5"/><path id="path3763" d="m 245,1028.8622 -1.5,-1.5 -8.5,8.5 1.5,1.5" style="color:#000;fill:#fff;fill-opacity:.1254902;fill-rule:nonzero;stroke:none;stroke-width:1;marker:none;visibility:visible;display:inline;overflow:visible;enable-background:accumulate"/></g></g><path style="font-size:medium;font-style:normal;font-variant:normal;font-weight:400;font-stretch:normal;text-indent:0;text-align:start;text-decoration:none;line-height:normal;letter-spacing:normal;word-spacing:normal;text-transform:none;direction:ltr;block-progression:tb;writing-mode:lr-tb;text-anchor:start;baseline-shift:baseline;color:#000;fill:#000;fill-opacity:.1254902;fill-rule:nonzero;stroke:none;stroke-width:2;marker:none;visibility:visible;display:inline;overflow:visible;enable-background:accumulate;font-family:Sans;-inkscape-font-specification:Sans" id="path3806" d="m -0.34375,796.70593 1.6875,1.6875 0.6875,-0.6875 -1.6875,-1.6875 z m 5.9375,5.9375 4.21875,4.25 0.71875,-0.71875 -4.25,-4.21875 z m 8.46875,8.5 4.25,4.21875 0.6875,-0.6875 -4.21875,-4.25 z m 8.5,8.46875 4.21875,4.25 0.71875,-0.71875 -4.25,-4.21875 z m 8.46875,8.5 4.25,4.25 0.71875,-0.71875 -4.25,-4.25 z m 8.5,8.46875 4.21875,4.25 0.71875,-0.71875 -4.25,-4.21875 z m 8.46875,8.5 4.25,4.25 0.71875,-0.71875 -4.25,-4.25 z m 8.5,8.46875 4.25,4.25 0.6875,-0.6875 -4.25,-4.25 z m 8.46875,8.5 4.25,4.25 0.71875,-0.71875 -4.25,-4.25 z m 8.5,8.46875 4.25,4.25 0.6875,-0.6875 -4.25,-4.25 z m 8.46875,8.5 4.25,4.25 0.71875,-0.71875 -4.25,-4.25 z m 8.5,8.46875 4.25,4.25 0.6875,-0.6875 -4.25,-4.25 z m 8.46875,8.5 4.25,4.25 0.71875,-0.71875 -4.25,-4.25 z m 8.5,8.5 4.25,4.21875 0.6875,-0.6875 -4.21875,-4.25 z"/><path id="path3829" d="m 256.34375,796.70593 -1.6875,1.6875 -0.6875,-0.6875 1.6875,-1.6875 z m -5.9375,5.9375 -4.21875,4.25 -0.71875,-0.71875 4.25,-4.21875 z m -8.46875,8.5 -4.25,4.21875 -0.6875,-0.6875 4.21875,-4.25 z m -8.5,8.46875 -4.21875,4.25 -0.71875,-0.71875 4.25,-4.21875 z m -8.46875,8.5 -4.25,4.25 -0.71875,-0.71875 4.25,-4.25 z m -8.5,8.46875 -4.21875,4.25 -0.71875,-0.71875 4.25,-4.21875 z m -8.46875,8.5 -4.25,4.25 -0.71875,-0.71875 4.25,-4.25 z m -8.5,8.46875 -4.25,4.25 -0.6875,-0.6875 4.25,-4.25 z m -8.46875,8.5 -4.25,4.25 -0.71875,-0.71875 4.25,-4.25 z m -8.5,8.46875 -4.25,4.25 -0.6875,-0.6875 4.25,-4.25 z m -8.46875,8.5 -4.25,4.25 -0.71875,-0.71875 4.25,-4.25 z m -8.5,8.46875 -4.25,4.25 -0.6875,-0.6875 4.25,-4.25 z m -8.46875,8.5 -4.25,4.25 -0.71875,-0.71875 4.25,-4.25 z m -8.5,8.5 -4.25,4.21875 -0.6875,-0.6875 4.21875,-4.25 z" style="font-size:medium;font-style:normal;font-variant:normal;font-weight:400;font-stretch:normal;text-indent:0;text-align:start;text-decoration:none;line-height:normal;letter-spacing:normal;word-spacing:normal;text-transform:none;direction:ltr;block-progression:tb;writing-mode:lr-tb;text-anchor:start;baseline-shift:baseline;color:#000;fill:#000;fill-opacity:.1254902;fill-rule:nonzero;stroke:none;stroke-width:2;marker:none;visibility:visible;display:inline;overflow:visible;enable-background:accumulate;font-family:Sans;-inkscape-font-specification:Sans"/><path id="path3831" d="m -0.34375,1052.0184 1.6875,-1.6875 0.6875,0.6875 -1.6875,1.6875 z m 5.9375,-5.9375 4.21875,-4.25 0.71875,0.7188 -4.25,4.2187 z m 8.46875,-8.5 4.25,-4.2187 0.6875,0.6875 -4.21875,4.25 z m 8.5,-8.4687 4.21875,-4.25 0.71875,0.7187 -4.25,4.2188 z m 8.46875,-8.5 4.25,-4.25 0.71875,0.7187 -4.25,4.25 z m 8.5,-8.4688 4.21875,-4.25 0.71875,0.7188 -4.25,4.2187 z m 8.46875,-8.5 4.25,-4.25 0.71875,0.7188 -4.25,4.25 z m 8.5,-8.46872 4.25,-4.25 0.6875,0.6875 -4.25,4.25 z m 8.46875,-8.5 4.25,-4.25 0.71875,0.71875 -4.25,4.25 z m 8.5,-8.46875 4.25,-4.25 0.6875,0.6875 -4.25,4.25 z m 8.46875,-8.5 4.25,-4.25 0.71875,0.71875 -4.25,4.25 z m 8.5,-8.46875 4.25,-4.25 0.6875,0.6875 -4.25,4.25 z m 8.46875,-8.5 4.25,-4.25 0.71875,0.71875 -4.25,4.25 z m 8.5,-8.5 4.25,-4.21875 0.6875,0.6875 -4.21875,4.25 z" style="font-size:medium;font-style:normal;font-variant:normal;font-weight:400;font-stretch:normal;text-indent:0;text-align:start;text-decoration:none;line-height:normal;letter-spacing:normal;word-spacing:normal;text-transform:none;direction:ltr;block-progression:tb;writing-mode:lr-tb;text-anchor:start;baseline-shift:baseline;color:#000;fill:#000;fill-opacity:.1254902;fill-rule:nonzero;stroke:none;stroke-width:2;marker:none;visibility:visible;display:inline;overflow:visible;enable-background:accumulate;font-family:Sans;-inkscape-font-specification:Sans"/><path style="font-size:medium;font-style:normal;font-variant:normal;font-weight:400;font-stretch:normal;text-indent:0;text-align:start;text-decoration:none;line-height:normal;letter-spacing:normal;word-spacing:normal;text-transform:none;direction:ltr;block-progression:tb;writing-mode:lr-tb;text-anchor:start;baseline-shift:baseline;color:#000;fill:#000;fill-opacity:.1254902;fill-rule:nonzero;stroke:none;stroke-width:2;marker:none;visibility:visible;display:inline;overflow:visible;enable-background:accumulate;font-family:Sans;-inkscape-font-specification:Sans" id="path3833" d="m 256.34375,1052.0184 -1.6875,-1.6875 -0.6875,0.6875 1.6875,1.6875 z m -5.9375,-5.9375 -4.21875,-4.25 -0.71875,0.7188 4.25,4.2187 z m -8.46875,-8.5 -4.25,-4.2187 -0.6875,0.6875 4.21875,4.25 z m -8.5,-8.4687 -4.21875,-4.25 -0.71875,0.7187 4.25,4.2188 z m -8.46875,-8.5 -4.25,-4.25 -0.71875,0.7187 4.25,4.25 z m -8.5,-8.4688 -4.21875,-4.25 -0.71875,0.7188 4.25,4.2187 z m -8.46875,-8.5 -4.25,-4.25 -0.71875,0.7188 4.25,4.25 z m -8.5,-8.46872 -4.25,-4.25 -0.6875,0.6875 4.25,4.25 z m -8.46875,-8.5 -4.25,-4.25 -0.71875,0.71875 4.25,4.25 z m -8.5,-8.46875 -4.25,-4.25 -0.6875,0.6875 4.25,4.25 z m -8.46875,-8.5 -4.25,-4.25 -0.71875,0.71875 4.25,4.25 z m -8.5,-8.46875 -4.25,-4.25 -0.6875,0.6875 4.25,4.25 z m -8.46875,-8.5 -4.25,-4.25 -0.71875,0.71875 4.25,4.25 z m -8.5,-8.5 -4.25,-4.21875 -0.6875,0.6875 4.21875,4.25 z"/></g></svg>