<svg xmlns="http://www.w3.org/2000/svg" xmlns:svg="http://www.w3.org/2000/svg" id="svg3238" width="70" height="70" version="1.1"><metadata id="metadata3243"/><g id="layer1" transform="translate(0,-982.36218)"><path id="path4575" d="m 630,290 c 0,27.61424 -22.38576,50 -50,50 -27.61424,0 -50,-22.38576 -50,-50 0,-27.61424 22.38576,-50 50,-50 27.61424,0 50,22.38576 50,50 z" transform="matrix(0.7,0,0,0.7,-371,814.36218)" style="color:#000;fill:#ddeff4;fill-opacity:1;fill-rule:nonzero;stroke:none;stroke-width:1px;marker:none;visibility:visible;display:inline;overflow:visible;enable-background:accumulate"/><path id="path4577" d="m 26.5,993.36217 -3,3 8,8.00003 1.99999,-4 -7,-7.00003 z m -3.5,3.5 -1.5,1.5 8.5,8.50003 1.5,-1.5 -8.5,-8.50003 z m 24,0 -8.5,8.50003 1.5,1.5 8.5,-8.50003 -1.5,-1.5 z m 2,2 -8,8.00003 4,2 7,-7 -3,-3.00003 z m -14,4.00003 -9.34375,9.3437 -0.65625,-0.3437 -7,7 3,3 3.8125,-3.8125 -0.125,1.125 -3.1875,3.1875 1.5,1.5 1.28125,-1.2813 L 23,1033.3622 c -5,1.0001 -8,5 -8,5 l 40,0 c 0,0 -3,-3.9999 -8,-5 l -1,-8.5 0.5,-0.5 -0.625,-0.5313 -0.15626,-1.25 1.28126,1.2813 1.5,-1.5 -3.1875,-3.1875 -0.81251,-6.8125 -9.49999,-9.5 z m -1.5,11.5 3,0 1,6 -5,0 1,-6 z" style="color:#000;fill:#202020;fill-opacity:1;fill-rule:nonzero;stroke:none;stroke-width:.055;marker:none;visibility:visible;display:inline;overflow:visible;enable-background:accumulate"/></g></svg>